<svg width="490" height="246" viewBox="0 0 490 246" fill="none" xmlns="http://www.w3.org/2000/svg">
<path d="M184.8 155.831C231.61 187.436 314.776 215.074 351.726 201.201C388.676 187.329 367.263 115.389 351.726 94.8396C336.189 74.2903 283.102 78.1583 256.34 81.0474C229.578 83.9365 137.99 124.225 184.8 155.831Z" stroke="#E26C56" stroke-width="2.10256"/>
<path d="M204.52 152.674C240.736 177.168 305.081 198.587 333.669 187.836C362.256 177.085 345.689 121.331 333.669 105.406C321.648 89.48 280.575 92.4777 259.87 94.7167C239.164 96.9558 168.304 128.179 204.52 152.674Z" stroke="#E26C56" stroke-width="1.57692"/>
<path d="M223.321 149.634C249.436 167.28 295.835 182.711 316.449 174.966C337.063 167.22 325.117 127.054 316.449 115.58C307.781 104.107 278.163 106.267 263.233 107.88C248.303 109.493 197.206 131.987 223.321 149.634Z" stroke="#E26C56" stroke-width="1.05128"/>
<path d="M245.792 146.009C259.835 155.491 284.785 163.782 295.87 159.62C306.955 155.459 300.531 133.877 295.87 127.712C291.209 121.547 275.283 122.708 267.254 123.574C259.225 124.441 231.749 136.528 245.792 146.009Z" stroke="#E26C56" stroke-width="0.525641"/>
<path d="M2 156.641C2 156.641 83.8377 130.936 127.321 105.142C170.804 79.3471 146.931 69.209 184.281 48.51C221.63 27.8109 187.992 -12.0208 292.592 13.5488C397.191 39.1184 476.811 120.02 476.811 120.02" stroke="#6A9360" stroke-width="2.10256" stroke-linecap="round"/>
<ellipse cx="463.622" cy="26.2821" rx="26.3784" ry="26.2821" fill="#FFBA5F"/>
<ellipse cx="68.4745" cy="72.0128" rx="8.96865" ry="8.9359" fill="#FFBA5F"/>
<ellipse cx="437.245" cy="202.372" rx="3.16541" ry="3.15385" fill="#FFBA5F"/>
<g clip-path="url(#clip0_431_8991)">
<path d="M98.1376 201.763L155.213 186.526L160.488 206.138L187.785 198.85L182.511 179.238L196.65 175.464L190.6 152.967L176.461 156.742L156.015 80.7167L120.061 90.3153L92.1497 179.498L98.1376 201.763ZM149.741 163.876L120.481 171.687L120.233 170.764L136.5 118.322L137.424 118.076L149.741 163.876Z" fill="#223051"/>
<path d="M248.094 179.897C280.111 179.957 299.763 156.303 299.822 115.924C299.882 75.7841 280.111 52.9067 248.094 52.9067C216.078 52.9067 196.486 75.7243 196.426 115.924C196.307 156.183 216.078 179.897 248.094 179.897ZM248.094 155.705C235.372 155.705 226.71 142.923 226.83 115.924C226.89 89.4627 235.431 76.919 248.094 76.919C260.817 76.919 269.359 89.4627 269.419 115.924C269.478 142.923 260.877 155.705 248.094 155.705Z" fill="#223051"/>
<path d="M247.039 169.91C279.055 169.969 298.707 146.316 298.767 105.937C298.826 65.7969 279.055 42.9195 247.039 42.9195C215.022 42.9195 195.43 65.7372 195.371 105.937C195.251 146.196 215.022 169.91 247.039 169.91ZM247.039 145.718C234.316 145.718 225.655 132.936 225.774 105.937C225.834 79.4755 234.376 66.9318 247.039 66.9318C259.762 66.9318 268.303 79.4755 268.363 105.937C268.423 132.936 259.821 145.718 247.039 145.718Z" fill="#E26C56"/>
<path d="M300.562 175.869L357.638 191.107L352.363 210.719L379.661 218.006L384.935 198.394L399.074 202.169L405.124 179.673L390.985 175.898L411.43 99.8728L375.477 90.2742L306.55 153.604L300.562 175.869ZM364.265 168.765L335.005 160.953L335.254 160.03L375.658 122.718L376.582 122.965L364.265 168.765Z" fill="#223051"/>
</g>
<defs>
<clipPath id="clip0_431_8991">
<rect width="366.132" height="227.077" fill="white" transform="translate(64.7803 18.9231)"/>
</clipPath>
</defs>
</svg>
