<svg width="24" height="24" viewBox="0 0 24 24" fill="none" xmlns="http://www.w3.org/2000/svg">
<path d="M12.375 21.75C17.5527 21.75 21.75 17.5527 21.75 12.375C21.75 7.19733 17.5527 3 12.375 3C7.19733 3 3 7.19733 3 12.375C3 17.5527 7.19733 21.75 12.375 21.75Z" stroke="#E4E9F2" stroke-width="1.5" stroke-linecap="round" stroke-linejoin="round"/>
<path d="M14.9792 9.24992C14.453 8.71954 13.804 8.37395 13.1102 8.25464C12.4164 8.13532 11.7072 8.24735 11.0677 8.57726C10.4282 8.90718 9.88557 9.44098 9.50495 10.1146C9.12433 10.7882 8.92188 11.5731 8.92188 12.3749C8.92188 13.1768 9.12433 13.9616 9.50495 14.6352C9.88557 15.3089 10.4282 15.8427 11.0677 16.1726C11.7072 16.5025 12.4164 16.6145 13.1102 16.4952C13.804 16.3759 14.453 16.0303 14.9792 15.4999" stroke="#E4E9F2" stroke-width="1.5" stroke-linecap="round" stroke-linejoin="round"/>
</svg>
